<mxfile host="app.diagrams.net" modified="2023-11-30T15:42:19.342Z" agent="Mozilla/5.0 (Windows NT 10.0; Win64; x64) AppleWebKit/537.36 (KHTML, like Gecko) Chrome/119.0.0.0 Safari/537.36" version="22.1.5" etag="yuaj1aZaJ6eQOccKWo7k" type="github">
  <diagram name="ページ1" id="xPUFVTaAaT9-rvyVkJAw">
    <mxGraphModel>
      <root>
        <mxCell id="0" />
        <mxCell id="1" parent="0" />
      </root>
    </mxGraphModel>
  </diagram>
</mxfile>
